<svg width="120" height="120" viewBox="0 0 120 120" fill="none" xmlns="http://www.w3.org/2000/svg">
<path fill-rule="evenodd" clip-rule="evenodd" d="M0 0H120V117.178L116.04 119.056L111.759 114.009L107.299 113.701L107.114 116.853L100.237 120L97.2579 114.647L92.0527 113.701L88.8965 117.168L83.8758 112.129L77.9454 111.822L74.0198 113.073L67.8842 115.271L63.9802 111.179L59.5271 115.906L55.2466 117.168L48.3704 114.647L42.6094 113.386L39.6288 110.868L36.2832 107.405L30.1494 115.906H24.9456L14.5307 117.793L10.0719 110.551L0.405177 112.129L0 112.311V0Z" fill="#A02122"/>
<path fill-rule="evenodd" clip-rule="evenodd" d="M24.2804 84.5357C24.1612 82.8698 23.8266 81.5969 23.2723 80.7169C22.7204 79.8337 21.986 79.3937 21.0737 79.3937C20.5942 79.3937 20.1475 79.5177 19.7358 79.7608C19.3265 80.0071 18.985 80.3467 18.716 80.7828L18.3652 78.9733C18.3488 78.8926 18.3395 78.8157 18.3395 78.7498C18.3395 78.4918 18.6294 78.2293 19.2096 77.9631C19.7897 77.697 20.3838 77.5619 20.9896 77.5619C22.4747 77.5619 23.6325 78.2909 24.4605 79.749C25.2908 81.2071 25.7049 83.2322 25.7049 85.8204C25.7049 88.389 25.2933 90.4063 24.4675 91.8722C23.6443 93.338 22.5122 94.0706 21.0737 94.0706C20.2458 94.0706 19.579 93.9012 19.0716 93.5616C18.564 93.222 18.3115 92.7828 18.3115 92.2424V90.1059C18.6038 90.8 18.9733 91.3169 19.4224 91.6604C19.8692 92.0031 20.393 92.1733 20.9896 92.1733C22.014 92.1733 22.8256 91.6408 23.4268 90.5765C24.0278 89.5075 24.3271 88.0494 24.3271 86.1984H21.1065C20.9965 86.1984 20.8889 86.2141 20.7813 86.2447C20.6738 86.2753 20.5731 86.3106 20.4773 86.3561V84.3663C20.5638 84.4353 20.655 84.4777 20.7533 84.5012C20.8516 84.5239 21.0105 84.5357 21.2305 84.5357H24.2804ZM37.2374 92.7514C36.8867 93.1796 36.6176 93.4926 36.4329 93.6816C36.2481 93.8737 36.1241 93.971 36.0609 93.971C35.8902 93.971 35.668 93.7702 35.3874 93.3726C35.0787 92.9255 34.6178 92.1231 34.012 90.9655L31.7363 86.68L30.955 87.9804V91.2471C30.955 91.8722 30.9714 92.3773 31.0065 92.7592C31.0416 93.1451 31.1047 93.4886 31.1959 93.789H29.3926C29.4698 93.5192 29.5283 93.1914 29.5634 92.8133C29.6008 92.4314 29.6195 91.9106 29.6195 91.2471V80.3851C29.6195 79.2126 29.5446 78.3564 29.3926 77.8203H31.1959C31.0345 78.3178 30.955 79.1741 30.955 80.3851V85.8008L34.5453 79.1663C34.7839 78.7231 34.9874 78.3874 35.1557 78.1598C35.2704 78.0017 35.3499 77.8974 35.3944 77.8435C35.4645 77.7701 35.5229 77.7315 35.5745 77.7315C35.6657 77.7315 35.8177 77.9091 36.0329 78.26L36.5404 79.0204C36.2972 79.2745 36.0563 79.5718 35.8177 79.9075C35.5768 80.2424 35.3171 80.6439 35.0388 81.1106L32.576 85.2878L34.6389 89.0682C35.8458 91.2588 36.7135 92.4855 37.2374 92.7514ZM48.9688 85.8008C48.9688 88.3969 48.5666 90.4259 47.7596 91.8839C46.9527 93.342 45.8207 94.0706 44.3635 94.0706C42.9158 94.0706 41.7883 93.3498 40.9814 91.9067C40.1744 90.4643 39.7721 88.4275 39.7721 85.8008C39.7721 83.2016 40.1721 81.1765 40.972 79.7294C41.772 78.2833 42.9016 77.5619 44.3635 77.5619C45.8159 77.5619 46.9479 78.2833 47.7548 79.7294C48.5642 81.1765 48.9688 83.2016 48.9688 85.8008ZM47.6052 85.8008C47.6052 83.7757 47.3247 82.1984 46.7633 81.0761C46.1994 79.9537 45.3997 79.3937 44.3635 79.3937C43.332 79.3937 42.5321 79.9459 41.9684 81.0486C41.4048 82.1522 41.1217 83.7373 41.1217 85.8008C41.1217 87.8416 41.4023 89.4227 41.9614 90.542C42.5204 91.6604 43.3227 92.2196 44.3635 92.2196C45.3927 92.2196 46.1879 91.6643 46.7561 90.5569C47.3224 89.4502 47.6052 87.8643 47.6052 85.8008ZM59.8091 92.2424C59.8091 92.7828 59.5545 93.222 59.0492 93.5616C58.5414 93.9012 57.8749 94.0706 57.0469 94.0706C55.6085 94.0706 54.4765 93.338 53.6532 91.8722C52.8276 90.4063 52.4157 88.389 52.4157 85.8204C52.4157 83.2322 52.83 81.2071 53.6599 79.749C54.488 78.2909 55.6459 77.5619 57.1289 77.5619C57.7321 77.5619 58.3242 77.697 58.9063 77.9631C59.4888 78.2293 59.7813 78.4918 59.7813 78.7498C59.7813 78.8157 59.7717 78.8926 59.753 78.9733L59.4044 80.7828C59.1355 80.3545 58.7965 80.0149 58.387 79.7678C57.978 79.5177 57.5312 79.3937 57.0469 79.3937C56.0204 79.3937 55.2201 79.9498 54.6496 81.0565C54.0785 82.1639 53.7932 83.7373 53.7932 85.778C53.7932 87.7608 54.0857 89.3184 54.6731 90.4604C55.2599 91.6024 56.0789 92.1733 57.1289 92.1733C57.7277 92.1733 58.2494 92.0071 58.6958 91.6722C59.1403 91.3365 59.5123 90.8157 59.8091 90.1059V92.2424ZM70.1373 77.6197L69.9172 79.0431C69.887 79.2478 69.8309 79.3977 69.7514 79.498C69.6694 79.6024 69.5524 79.6526 69.3985 79.6526H66.8697V91.2471C66.8697 91.8643 66.8861 92.3584 66.9187 92.7286C66.9493 93.0949 67.0102 93.4502 67.0965 93.789H65.2583C65.3379 93.5271 65.3963 93.1875 65.4385 92.7788C65.4779 92.3663 65.499 91.8573 65.499 91.2471V79.6526H63.6559C63.3965 79.6526 63.1529 79.68 62.9309 79.7373C62.7065 79.7953 62.4726 79.8918 62.2319 80.0384L62.5545 78.4416C62.5987 78.1867 62.6552 78.0169 62.7204 77.9398C62.788 77.8589 62.9194 77.8203 63.1155 77.8203H68.9185C69.3937 77.8203 69.8007 77.7548 70.1373 77.6197ZM81.0663 77.8203C80.9445 78.0479 80.8606 78.3488 80.8136 78.7231C80.7695 79.1012 80.746 79.6565 80.746 80.3851V91.2471C80.746 91.9459 80.7623 92.4737 80.7949 92.8212C80.8256 93.1718 80.8865 93.4965 80.9728 93.789H79.2582C79.3354 93.4886 79.3939 93.1333 79.4313 92.7286C79.4668 92.32 79.4855 91.8259 79.4855 91.2471V80.7828L74.3044 93.789H72.9619C73.0252 93.1647 73.0578 92.6086 73.0578 92.1271V80.3851C73.0578 79.6988 73.0415 79.1741 73.0065 78.8039C72.9715 78.4337 72.913 78.1057 72.831 77.8203H74.5431C74.4564 78.1057 74.3955 78.4565 74.3581 78.8698C74.3231 79.2824 74.3044 79.7875 74.3044 80.382V90.5875L79.3709 77.8242L81.0663 77.8203ZM86.3424 80.7247C86.3424 80.2424 86.3002 79.7294 86.2163 79.1898C86.1319 78.6455 86.0288 78.1908 85.9118 77.8203H92.4632C92.3841 78.0672 92.3275 78.4028 92.2877 78.8196C92.2484 79.24 92.2293 79.7608 92.2293 80.3851V91.2471C92.2293 91.8957 92.246 92.4165 92.281 92.8055C92.316 93.1992 92.3769 93.5271 92.4632 93.789H90.6671C90.7443 93.5467 90.8052 93.222 90.847 92.8133C90.8868 92.4008 90.9078 91.88 90.9078 91.2471V79.6408H87.6451V85.0102C87.6451 87.051 87.4907 88.8024 87.1795 90.2635C86.9177 91.4831 86.5668 92.4353 86.1247 93.1106C85.7483 93.6847 85.381 93.971 85.0209 93.971C84.9342 93.971 84.8057 93.72 84.6374 93.2149C84.518 92.8596 84.4173 92.5122 84.3353 92.1733C84.6326 92.0228 84.9179 91.7647 85.1916 91.3937C85.5023 90.9733 85.7224 90.4988 85.849 89.982C86.0173 89.2957 86.1434 88.5051 86.223 87.6063C86.3026 86.7114 86.3424 85.72 86.3424 84.6361V80.7247ZM100.993 88.5239C100.993 87.4792 100.81 86.6612 100.445 86.0706C100.057 85.4463 99.5004 85.1333 98.773 85.1333C98.6469 85.1333 98.5414 85.1373 98.4618 85.149C98.3823 85.1608 98.249 85.1953 98.062 85.2455V92.0612L98.7869 92.1075C99.4769 92.1075 100.017 91.7796 100.408 91.12C100.799 90.4604 100.993 89.5929 100.993 88.5239ZM96.5253 93.8126C96.6773 93.4502 96.7521 92.6016 96.7521 91.2706V80.3851C96.7521 79.1663 96.6773 78.3178 96.5253 77.8435H98.2936C98.2116 78.0864 98.1531 78.4183 98.1157 78.8424C98.0807 79.2706 98.062 79.7835 98.062 80.3851V83.5286L98.5553 83.4596H99.0818C100.097 83.4596 100.88 83.9114 101.439 84.8133C101.982 85.6933 102.253 86.9192 102.253 88.4894C102.253 90.0824 101.959 91.3592 101.369 92.3122C100.752 93.3114 99.905 93.8126 98.8267 93.8126H97.3811C97.2948 93.8126 97.2037 93.8126 97.1102 93.8126C97.0162 93.8126 96.9228 93.8126 96.8269 93.8126H96.5253Z" fill="white"/>
<path fill-rule="evenodd" clip-rule="evenodd" d="M59.8321 60.9911C57.0167 58.5222 53.8853 56.2394 51.884 52.1548C50.4748 49.2791 50.366 44.4909 51.2506 41.031C52.3505 36.7303 54.5057 32.0495 57.2684 31.1002C61.0332 29.8065 65.6284 30.9413 68.4592 35.1168C70.2543 37.7647 69.1664 43.474 68.1427 47.1397C66.9474 51.4191 65.066 57.4696 62.2304 57.4155C58.7255 57.3485 55.3021 52.1948 53.9956 46.8682C53.1215 43.3056 54.9435 38.0678 57.057 36.3298C59.3992 34.4044 62.9396 35.0179 64.7639 38.0135C66.2968 40.5293 66.0307 45.9725 64.6584 48.8113C63.4564 51.2989 60.8692 49.9179 58.9576 50.0271C58.655 50.0442 58.306 49.654 58.2187 49.1788C57.8265 47.0537 56.8053 44.4301 57.5849 42.5818C58.3448 40.7807 60.3811 40.2792 61.4916 41.4198C62.4117 42.3652 61.9753 45.0573 61.7025 46.8108C61.6148 47.3754 60.7868 47.3704 60.6467 46.8425C60.3241 45.6283 61.1454 43.8741 60.6467 42.838C60.2565 42.0271 59.0295 41.9524 58.7461 42.8951C58.2719 44.4742 58.282 46.9486 59.0631 48.1089C59.9501 49.4266 61.8478 50.1998 62.6528 48.6975C63.9205 46.3307 64.7898 41.9778 63.7086 39.438C62.6303 36.9067 59.8225 36.6523 58.1128 38.0391C56.5056 39.3428 55.0662 43.2158 55.6847 45.9469C56.6475 50.1972 59.1556 54.5172 61.9135 54.8134C64.1996 55.0588 66.0436 50.5727 67.0869 47.1714C67.9346 44.4066 68.4817 39.9435 67.0869 37.9438C64.6465 34.4449 60.9244 32.8837 57.6908 33.6992C55.2925 34.3039 53.3564 38.1576 52.2009 41.6989C51.4103 44.1214 51.3815 47.7706 52.4119 49.8756C54.2837 53.6991 58.7241 54.3259 59.5152 59.0853L59.8321 60.9911Z" fill="white"/>
<path fill-rule="evenodd" clip-rule="evenodd" d="M50.1728 70.2902C49.1765 68.7064 50.0572 60.0564 49.7767 57.0954C51.5546 54.2854 55.7149 57.3944 55.8339 61.3427C55.9528 65.2911 52.5778 71.9766 50.1728 70.2902ZM50.7927 67.529C50.8565 66.1584 52.1837 60.6318 50.6767 59.591C51.6985 57.8733 54.2775 59.1802 54.3135 61.6084C54.3489 64.0366 52.3318 68.383 50.7927 67.529Z" fill="white"/>
<path fill-rule="evenodd" clip-rule="evenodd" d="M68.943 70.4814C69.6008 67.9537 68.5023 59.1893 68.6385 55.7885C68.7752 52.3877 63.4957 59.6885 63.5739 63.4574C63.6516 67.2263 68.2851 73.0093 68.943 70.4814ZM68.323 67.7576C68.242 66.147 67.5669 60.6323 67.7386 58.338C67.9102 56.0439 64.9548 61.382 65.0943 63.6317C65.2338 65.8814 68.404 69.3682 68.323 67.7576Z" fill="white"/>
<path fill-rule="evenodd" clip-rule="evenodd" d="M70.2188 39.7692L69.8655 43.3009C70.9049 40.8949 72.9014 40.1245 74.0536 41.0278C75.3813 42.068 75.6076 44.7979 74.8663 46.2503C73.0611 49.5567 70.4389 45.3871 72.7677 41.5164C71.043 42.1125 70.3157 44.4602 71.1509 47.4573C72.0154 50.3763 74.9833 51.181 76.4936 47.4379C77.908 43.0441 75.515 35.263 70.2188 39.7692Z" fill="white"/>
<path fill-rule="evenodd" clip-rule="evenodd" d="M45.2312 34.9435C47.9279 34.2808 50.7227 34.0106 52.5462 32.9925C53.4979 32.4609 52.8295 31.2792 52.1803 30.0528C49.0911 24.2171 47.7994 23.7491 46.9618 23.9134C45.3252 24.7043 43.9215 26.8861 43.7433 31.4893C43.6873 32.9395 44.2447 35.186 45.2312 34.9435ZM46.0345 32.7154C47.6978 32.2747 49.3821 32.1378 51.0564 31.8487C49.9633 30.5384 48.8706 29.2273 47.7774 27.9165C47.3219 27.398 47.2533 26.7062 46.5825 27.6673C46.1371 29.0353 46.1994 29.4451 45.5802 30.6157C45.2945 31.1554 45.4455 32.8715 46.0345 32.7154Z" fill="white"/>
<path fill-rule="evenodd" clip-rule="evenodd" d="M51.733 27.7406C52.036 28.1867 52.3395 28.6333 52.643 29.0799C53.6312 22.1177 57.5801 18.4669 59.1115 21.8784C60.8683 26.1265 57.1999 30.0095 55.2067 24.63C55.1084 28.0351 56.5205 30.0058 58.8463 29.195C61.1267 28.3077 62.5646 22.915 60.4176 19.1114C57.7906 15.3236 52.3779 18.2078 51.733 27.7406Z" fill="white"/>
<path fill-rule="evenodd" clip-rule="evenodd" d="M48.661 22.3001C48.8629 22.5973 49.0652 22.8949 49.2675 23.1925C49.9259 18.5533 52.5572 16.1205 53.5775 18.3938C54.7483 21.2245 52.304 23.812 50.9759 20.2273C50.9102 22.4962 51.8514 23.8095 53.401 23.2692C54.9205 22.6779 55.8789 19.0845 54.4482 16.55C52.6977 14.026 49.0906 15.9478 48.661 22.3001Z" fill="white"/>
</svg>
