<svg width="32" height="32" viewBox="0 0 32 32" fill="none" xmlns="http://www.w3.org/2000/svg">
<path fill-rule="evenodd" clip-rule="evenodd" d="M0 0H32V31.2475L30.9439 31.7482L29.8023 30.4023L28.613 30.3203L28.5638 31.1607L26.7298 32L25.9354 30.5726L24.5474 30.3203L23.7057 31.2448L22.3669 29.901L20.7854 29.8192L19.7386 30.1528L18.1025 30.739L17.0614 29.6477L15.8739 30.9082L14.7324 31.2448L12.8988 30.5726L11.3625 30.2362L10.5677 29.5649L9.67553 28.6415L8.03984 30.9082H6.65215L3.87486 31.4115L2.68584 29.4804L0.108047 29.901L0 29.9497V0Z" fill="#A02122"/>
<path fill-rule="evenodd" clip-rule="evenodd" d="M6.47477 22.5428C6.44299 22.0986 6.35376 21.7592 6.20595 21.5245C6.05876 21.289 5.86292 21.1717 5.61966 21.1717C5.49179 21.1717 5.37266 21.2047 5.26289 21.2695C5.15372 21.3352 5.06266 21.4258 4.99094 21.5421L4.89738 21.0596C4.89302 21.038 4.89053 21.0175 4.89053 20.9999C4.89053 20.9311 4.96785 20.8612 5.12255 20.7902C5.27724 20.7192 5.43567 20.6832 5.59722 20.6832C5.99326 20.6832 6.30199 20.8776 6.52281 21.2664C6.74422 21.6552 6.85464 22.1952 6.85464 22.8854C6.85464 23.5704 6.74487 24.1083 6.52466 24.4992C6.30515 24.8901 6.00326 25.0855 5.61966 25.0855C5.39888 25.0855 5.22108 25.0403 5.08575 24.9498C4.95041 24.8592 4.88306 24.7421 4.88306 24.598V24.0282C4.961 24.2133 5.05954 24.3512 5.17932 24.4428C5.29844 24.5342 5.43814 24.5796 5.59722 24.5796C5.87039 24.5796 6.08683 24.4375 6.24714 24.1537C6.40742 23.8687 6.48724 23.4798 6.48724 22.9863H5.62839C5.59906 22.9863 5.57038 22.9904 5.54168 22.9986C5.513 23.0067 5.48616 23.0162 5.46062 23.0283V22.4977C5.48367 22.5161 5.508 22.5274 5.53421 22.5336C5.56042 22.5397 5.6028 22.5428 5.66146 22.5428H6.47477ZM9.92998 24.7337C9.83645 24.8479 9.7647 24.9313 9.71544 24.9818C9.66616 25.033 9.6331 25.0589 9.61624 25.0589C9.57071 25.0589 9.51148 25.0054 9.43664 24.8993C9.35431 24.7801 9.23142 24.5662 9.06987 24.2575L8.46302 23.1147L8.25466 23.4614V24.3326C8.25466 24.4992 8.25904 24.6339 8.2684 24.7358C8.27775 24.8387 8.29458 24.9303 8.31889 25.0104H7.83803C7.85862 24.9385 7.8742 24.851 7.88356 24.7502C7.89354 24.6484 7.89854 24.5095 7.89854 24.3326V21.436C7.89854 21.1233 7.87857 20.895 7.83803 20.7521H8.31889C8.27587 20.8847 8.25466 21.1131 8.25466 21.436V22.8802L9.21208 21.111C9.27571 20.9928 9.32998 20.9033 9.37486 20.8426C9.40543 20.8005 9.42663 20.7726 9.4385 20.7583C9.4572 20.7387 9.47279 20.7284 9.48653 20.7284C9.51086 20.7284 9.55138 20.7758 9.60878 20.8693L9.74411 21.0721C9.67925 21.1399 9.61502 21.2191 9.55138 21.3087C9.48715 21.398 9.4179 21.505 9.34369 21.6295L8.68692 22.7434L9.23703 23.7515C9.55889 24.3357 9.79026 24.6628 9.92998 24.7337ZM13.0584 22.8802C13.0584 23.5725 12.9511 24.1136 12.7359 24.5024C12.5207 24.8912 12.2188 25.0855 11.8303 25.0855C11.4442 25.0855 11.1435 24.8933 10.9284 24.5084C10.7132 24.1238 10.6059 23.5807 10.6059 22.8802C10.6059 22.1871 10.7126 21.6471 10.9259 21.2612C11.1392 20.8755 11.4404 20.6832 11.8303 20.6832C12.2176 20.6832 12.5194 20.8755 12.7346 21.2612C12.9504 21.6471 13.0584 22.1871 13.0584 22.8802ZM12.6947 22.8802C12.6947 22.3402 12.6199 21.9196 12.4702 21.6203C12.3199 21.321 12.1066 21.1717 11.8303 21.1717C11.5552 21.1717 11.3419 21.3189 11.1916 21.613C11.0413 21.9072 10.9658 22.3299 10.9658 22.8802C10.9658 23.4244 11.0406 23.8461 11.1897 24.1445C11.3388 24.4428 11.5527 24.5919 11.8303 24.5919C12.1047 24.5919 12.3168 24.4438 12.4683 24.1485C12.6193 23.8534 12.6947 23.4305 12.6947 22.8802ZM15.9491 24.598C15.9491 24.7421 15.8812 24.8592 15.7464 24.9498C15.611 25.0403 15.4333 25.0855 15.2125 25.0855C14.8289 25.0855 14.5271 24.8901 14.3075 24.4992C14.0874 24.1083 13.9775 23.5704 13.9775 22.8854C13.9775 22.1952 14.088 21.6552 14.3093 21.2664C14.5301 20.8776 14.8389 20.6832 15.2344 20.6832C15.3952 20.6832 15.5531 20.7192 15.7083 20.7902C15.8637 20.8612 15.9417 20.9311 15.9417 20.9999C15.9417 21.0175 15.9391 21.038 15.9341 21.0596L15.8412 21.5421C15.7695 21.4279 15.6791 21.3373 15.5699 21.2714C15.4608 21.2047 15.3416 21.1717 15.2125 21.1717C14.9388 21.1717 14.7254 21.3199 14.5732 21.6151C14.4209 21.9104 14.3449 22.3299 14.3449 22.8741C14.3449 23.4029 14.4229 23.8182 14.5795 24.1228C14.736 24.4273 14.9544 24.5796 15.2344 24.5796C15.3941 24.5796 15.5332 24.5352 15.6522 24.4459C15.7707 24.3564 15.87 24.2175 15.9491 24.0282V24.598ZM18.7033 20.6986L18.6446 21.0782C18.6365 21.1328 18.6216 21.1727 18.6004 21.1995C18.5785 21.2273 18.5473 21.2407 18.5063 21.2407H17.8319V24.3326C17.8319 24.4972 17.8363 24.6289 17.845 24.7276C17.8532 24.8253 17.8694 24.9201 17.8924 25.0104H17.4022C17.4234 24.9405 17.439 24.85 17.4503 24.741C17.4608 24.631 17.4664 24.4953 17.4664 24.3326V21.2407H16.9749C16.9057 21.2407 16.8408 21.248 16.7816 21.2633C16.7217 21.2787 16.6594 21.3045 16.5952 21.3436L16.6812 20.9178C16.693 20.8498 16.7081 20.8045 16.7255 20.784C16.7435 20.7624 16.7785 20.7521 16.8308 20.7521H18.3783C18.505 20.7521 18.6135 20.7346 18.7033 20.6986ZM21.6177 20.7521C21.5852 20.8128 21.5628 20.893 21.5503 20.9928C21.5385 21.0936 21.5323 21.2417 21.5323 21.436V24.3326C21.5323 24.5189 21.5366 24.6597 21.5453 24.7523C21.5535 24.8458 21.5697 24.9324 21.5927 25.0104H21.1355C21.1561 24.9303 21.1717 24.8356 21.1817 24.7276C21.1911 24.6187 21.1961 24.4869 21.1961 24.3326V21.5421L19.8145 25.0104H19.4565C19.4734 24.8439 19.4821 24.6956 19.4821 24.5672V21.436C19.4821 21.253 19.4777 21.1131 19.4684 21.0144C19.4591 20.9157 19.4435 20.8282 19.4216 20.7521H19.8782C19.855 20.8282 19.8388 20.9217 19.8288 21.0319C19.8195 21.142 19.8145 21.2767 19.8145 21.4352V24.1567L21.1656 20.7531L21.6177 20.7521ZM23.0246 21.5266C23.0246 21.398 23.0134 21.2612 22.991 21.1173C22.9685 20.9721 22.941 20.8509 22.9098 20.7521H24.6569C24.6358 20.8179 24.6207 20.9074 24.6101 21.0186C24.5996 21.1307 24.5945 21.2695 24.5945 21.436V24.3326C24.5945 24.5055 24.5989 24.6444 24.6083 24.7481C24.6176 24.8531 24.6338 24.9405 24.6569 25.0104H24.1779C24.1985 24.9458 24.2147 24.8592 24.2259 24.7502C24.2365 24.6402 24.2421 24.5013 24.2421 24.3326V21.2375H23.372V22.6694C23.372 23.2136 23.3308 23.6806 23.2479 24.0703C23.1781 24.3955 23.0845 24.6494 22.9666 24.8295C22.8662 24.9826 22.7683 25.0589 22.6723 25.0589C22.6491 25.0589 22.6148 24.992 22.57 24.8573C22.5381 24.7626 22.5113 24.6699 22.4894 24.5796C22.5687 24.5394 22.6448 24.4706 22.7178 24.3717C22.8006 24.2596 22.8593 24.133 22.8931 23.9952C22.9379 23.8122 22.9716 23.6014 22.9928 23.3617C23.014 23.123 23.0246 22.8587 23.0246 22.5696V21.5266ZM26.9315 23.6064C26.9315 23.3278 26.8827 23.1096 26.7854 22.9522C26.6819 22.7857 26.5334 22.7022 26.3395 22.7022C26.3058 22.7022 26.2777 22.7033 26.2565 22.7064C26.2353 22.7095 26.1997 22.7187 26.1499 22.7321V24.5496L26.3432 24.562C26.5272 24.562 26.6713 24.4746 26.7755 24.2987C26.8797 24.1228 26.9315 23.8915 26.9315 23.6064ZM25.7401 25.0167C25.7806 24.9201 25.8006 24.6938 25.8006 24.3388V21.436C25.8006 21.111 25.7806 20.8847 25.7401 20.7583H26.2116C26.1898 20.823 26.1742 20.9115 26.1642 21.0246C26.1548 21.1388 26.1499 21.2756 26.1499 21.436V22.2743L26.2814 22.2559H26.4218C26.6925 22.2559 26.9014 22.3764 27.0505 22.6169C27.1952 22.8516 27.2676 23.1785 27.2676 23.5972C27.2676 24.022 27.189 24.3625 27.0318 24.6166C26.8671 24.883 26.6413 25.0167 26.3538 25.0167H25.9683C25.9453 25.0167 25.921 25.0167 25.8961 25.0167C25.871 25.0167 25.8461 25.0167 25.8205 25.0167H25.7401Z" fill="white"/>
<path fill-rule="evenodd" clip-rule="evenodd" d="M15.9552 16.2643C15.2045 15.6059 14.3694 14.9972 13.8357 13.908C13.46 13.1411 13.4309 11.8642 13.6668 10.9416C13.9601 9.79476 14.5349 8.54653 15.2716 8.2934C16.2755 7.9484 17.5009 8.251 18.2558 9.36447C18.7345 10.0706 18.4444 11.5931 18.1714 12.5706C17.8526 13.7118 17.3509 15.3252 16.5948 15.3108C15.6601 15.2929 14.7472 13.9186 14.3988 12.4982C14.1657 11.5482 14.6516 10.1514 15.2152 9.68795C15.8398 9.1745 16.7839 9.3381 17.2704 10.1369C17.6791 10.8078 17.6082 12.2593 17.2423 13.0163C16.9217 13.6797 16.2318 13.3114 15.722 13.3406C15.6413 13.3451 15.5483 13.2411 15.525 13.1144C15.4204 12.5477 15.1481 11.848 15.356 11.3551C15.5586 10.8749 16.1016 10.7411 16.3978 11.0453C16.6431 11.2974 16.5268 12.0153 16.454 12.4829C16.4306 12.6334 16.2098 12.6321 16.1725 12.4913C16.0864 12.1675 16.3054 11.6998 16.1725 11.4235C16.0684 11.2072 15.7412 11.1873 15.6656 11.4387C15.5392 11.8598 15.5419 12.5196 15.7502 12.829C15.9867 13.1804 16.4927 13.3866 16.7074 12.986C17.0455 12.3549 17.2773 11.1941 16.989 10.5168C16.7014 9.8418 15.9527 9.77395 15.4967 10.1438C15.0682 10.4914 14.6843 11.5242 14.8493 12.2525C15.106 13.3859 15.7748 14.5379 16.5103 14.6169C17.1199 14.6824 17.6116 13.4861 17.8899 12.579C18.1159 11.8418 18.2618 10.6516 17.8899 10.1183C17.2391 9.18532 16.2465 8.76898 15.3842 8.98646C14.7447 9.14771 14.2284 10.1754 13.9202 11.1197C13.7094 11.7657 13.7017 12.7388 13.9765 13.3002C14.4757 14.3198 15.6598 14.4869 15.8707 15.7561L15.9552 16.2643Z" fill="white"/>
<path fill-rule="evenodd" clip-rule="evenodd" d="M13.3794 18.7441C13.1137 18.3217 13.3486 16.015 13.2738 15.2255C13.7479 14.4761 14.8573 15.3052 14.889 16.3581C14.9207 17.4109 14.0207 19.1938 13.3794 18.7441ZM13.5447 18.0077C13.5617 17.6422 13.9156 16.1685 13.5138 15.8909C13.7863 15.4329 14.474 15.7814 14.4836 16.4289C14.4931 17.0764 13.9552 18.2355 13.5447 18.0077Z" fill="white"/>
<path fill-rule="evenodd" clip-rule="evenodd" d="M18.3848 18.795C18.5602 18.121 18.2673 15.7838 18.3036 14.8769C18.34 13.97 16.9322 15.9169 16.953 16.922C16.9738 17.927 18.2094 19.4691 18.3848 18.795ZM18.2195 18.0687C18.1979 17.6392 18.0178 16.1686 18.0636 15.5568C18.1094 14.945 17.3213 16.3685 17.3585 16.9684C17.3957 17.5684 18.2411 18.4982 18.2195 18.0687Z" fill="white"/>
<path fill-rule="evenodd" clip-rule="evenodd" d="M18.725 10.6051L18.6308 11.5469C18.908 10.9053 19.4404 10.6999 19.7476 10.9407C20.1017 11.2181 20.162 11.9461 19.9643 12.3334C19.483 13.2151 18.7837 12.1032 19.4047 11.071C18.9448 11.23 18.7508 11.856 18.9736 12.6553C19.2041 13.4337 19.9955 13.6483 20.3983 12.6501C20.7755 11.4784 20.1373 9.40346 18.725 10.6051Z" fill="white"/>
<path fill-rule="evenodd" clip-rule="evenodd" d="M12.0616 9.31827C12.7808 9.14154 13.5261 9.06949 14.0123 8.79799C14.2661 8.65623 14.0879 8.34112 13.9148 8.01407C13.091 6.45789 12.7465 6.33309 12.5231 6.37691C12.0867 6.58782 11.7124 7.16963 11.6649 8.39716C11.6499 8.78387 11.7986 9.38294 12.0616 9.31827ZM12.2759 8.72412C12.7194 8.60658 13.1686 8.57008 13.6151 8.49299C13.3235 8.14356 13.0321 7.79394 12.7406 7.44441C12.6192 7.30612 12.6009 7.12165 12.422 7.37794C12.3032 7.74274 12.3199 7.85203 12.1547 8.16418C12.0785 8.3081 12.1188 8.76574 12.2759 8.72412Z" fill="white"/>
<path fill-rule="evenodd" clip-rule="evenodd" d="M13.7955 7.3975C13.8763 7.51647 13.9572 7.63556 14.0381 7.75465C14.3016 5.89806 15.3547 4.92451 15.7631 5.83425C16.2315 6.96707 15.2533 8.00253 14.7218 6.56799C14.6956 7.47602 15.0721 8.00155 15.6924 7.78533C16.3005 7.54872 16.6839 6.11066 16.1113 5.09639C15.4108 4.08629 13.9674 4.8554 13.7955 7.3975Z" fill="white"/>
<path fill-rule="evenodd" clip-rule="evenodd" d="M12.9763 5.94669C13.0301 6.02596 13.0841 6.10531 13.138 6.18466C13.3136 4.94753 14.0152 4.29879 14.2873 4.90501C14.5996 5.65988 13.9477 6.34987 13.5936 5.39394C13.5761 5.999 13.827 6.3492 14.2403 6.20511C14.6455 6.04744 14.901 5.08919 14.5195 4.41334C14.0527 3.74028 13.0908 4.25276 12.9763 5.94669Z" fill="white"/>
</svg>
