<svg width="255" height="153" viewBox="0 0 255 153" fill="none" xmlns="http://www.w3.org/2000/svg">
<path fill-rule="evenodd" clip-rule="evenodd" d="M0 0H255V149.402L246.584 151.796L237.487 145.361L228.01 144.969L227.618 148.987L213.003 153L206.673 146.175L195.612 144.969L188.905 149.389L178.236 142.964L165.634 142.573L157.292 144.168L144.254 146.971L135.958 141.753L126.495 147.78L117.399 149.389L102.787 146.175L90.545 144.567L84.2111 141.357L77.1019 136.942L64.0675 147.78H53.0093L30.8778 150.186L21.4028 140.953L0.861001 142.964L0 143.197V0Z" fill="#A02122"/>
<path fill-rule="evenodd" clip-rule="evenodd" d="M55.3626 107.783C55.114 105.659 54.4161 104.036 53.2601 102.914C52.1089 101.788 50.5772 101.227 48.6746 101.227C47.6745 101.227 46.7428 101.385 45.8842 101.695C45.0304 102.009 44.3182 102.442 43.7573 102.998L43.0255 100.691C42.9914 100.588 42.9719 100.49 42.9719 100.406C42.9719 100.077 43.5767 99.7424 44.7866 99.403C45.9965 99.0637 47.2356 98.8914 48.4991 98.8914C51.5966 98.8914 54.0112 99.8209 55.7383 101.68C57.47 103.539 58.3336 106.121 58.3336 109.421C58.3336 112.696 57.4751 115.268 55.7528 117.137C54.0359 119.006 51.6748 119.94 48.6746 119.94C46.9478 119.94 45.5572 119.724 44.4988 119.291C43.4403 118.858 42.9135 118.298 42.9135 117.609V114.885C43.5231 115.77 44.2938 116.429 45.2306 116.867C46.1623 117.304 47.2549 117.521 48.4991 117.521C50.6356 117.521 52.3284 116.842 53.5822 115.485C54.8358 114.122 55.4601 112.263 55.4601 109.903H48.7429C48.5135 109.903 48.2892 109.923 48.0647 109.962C47.8404 110.001 47.6305 110.046 47.4307 110.104V107.567C47.611 107.655 47.8013 107.709 48.0063 107.739C48.2113 107.768 48.5427 107.783 49.0015 107.783H55.3626ZM82.3864 118.258C81.6549 118.804 81.0937 119.203 80.7084 119.444C80.323 119.689 80.0644 119.813 79.9326 119.813C79.5765 119.813 79.1132 119.557 78.5279 119.05C77.884 118.48 76.9228 117.457 75.6593 115.981L70.913 110.517L69.2834 112.175V116.34C69.2834 117.137 69.3177 117.781 69.3909 118.268C69.464 118.76 69.5956 119.198 69.7858 119.581H66.0249C66.1859 119.237 66.3078 118.819 66.381 118.337C66.459 117.85 66.4981 117.186 66.4981 116.34V102.491C66.4981 100.996 66.3419 99.9044 66.0249 99.2209H69.7858C69.4493 99.8552 69.2834 100.947 69.2834 102.491V109.396L76.7716 100.937C77.2692 100.372 77.6937 99.9439 78.0447 99.6537C78.2838 99.4522 78.4496 99.3192 78.5424 99.2504C78.6887 99.1569 78.8106 99.1077 78.9181 99.1077C79.1084 99.1077 79.4253 99.3341 79.8742 99.7815L80.9327 100.751C80.4254 101.075 79.923 101.454 79.4253 101.882C78.9229 102.309 78.3813 102.821 77.8009 103.416L72.6642 108.742L76.9667 113.562C79.484 116.355 81.2936 117.919 82.3864 118.258ZM106.854 109.396C106.854 112.706 106.015 115.293 104.332 117.152C102.649 119.011 100.288 119.94 97.2489 119.94C94.2294 119.94 91.8779 119.021 90.1951 117.181C88.5119 115.342 87.6729 112.745 87.6729 109.396C87.6729 106.082 88.5071 103.5 90.1755 101.655C91.8439 99.8112 94.1999 98.8914 97.2489 98.8914C100.278 98.8914 102.639 99.8112 104.322 101.655C106.01 103.5 106.854 106.082 106.854 109.396ZM104.01 109.396C104.01 106.814 103.425 104.803 102.254 103.372C101.078 101.941 99.4101 101.227 97.2489 101.227C95.0976 101.227 93.4292 101.931 92.2536 103.337C91.078 104.744 90.4877 106.765 90.4877 109.396C90.4877 111.998 91.0729 114.014 92.2389 115.441C93.4048 116.867 95.0781 117.58 97.2489 117.58C99.3954 117.58 101.054 116.872 102.239 115.46C103.42 114.049 104.01 112.027 104.01 109.396ZM129.463 117.609C129.463 118.298 128.932 118.858 127.878 119.291C126.819 119.724 125.429 119.94 123.702 119.94C120.702 119.94 118.341 119.006 116.624 117.137C114.902 115.268 114.043 112.696 114.043 109.421C114.043 106.121 114.907 103.539 116.638 101.68C118.365 99.8209 120.78 98.8914 123.873 98.8914C125.131 98.8914 126.366 99.0637 127.58 99.403C128.795 99.7424 129.405 100.077 129.405 100.406C129.405 100.49 129.385 100.588 129.346 100.691L128.619 102.998C128.058 102.452 127.351 102.019 126.497 101.704C125.644 101.385 124.712 101.227 123.702 101.227C121.561 101.227 119.892 101.936 118.702 103.347C117.511 104.759 116.916 106.765 116.916 109.367C116.916 111.895 117.526 113.881 118.751 115.337C119.975 116.793 121.683 117.521 123.873 117.521C125.122 117.521 126.21 117.309 127.141 116.882C128.068 116.454 128.844 115.79 129.463 114.885V117.609ZM151.004 98.9651L150.545 100.78C150.482 101.041 150.365 101.232 150.199 101.36C150.028 101.493 149.784 101.557 149.463 101.557H144.189V116.34C144.189 117.127 144.223 117.757 144.291 118.229C144.355 118.696 144.482 119.149 144.662 119.581H140.828C140.994 119.247 141.116 118.814 141.204 118.293C141.286 117.767 141.33 117.118 141.33 116.34V101.557H137.486C136.945 101.557 136.437 101.592 135.974 101.665C135.506 101.739 135.018 101.862 134.516 102.049L135.189 100.013C135.281 99.688 135.399 99.4716 135.535 99.3733C135.676 99.2701 135.95 99.2209 136.359 99.2209H148.462C149.453 99.2209 150.302 99.1374 151.004 98.9651ZM173.798 99.2209C173.544 99.5111 173.369 99.8947 173.271 100.372C173.179 100.854 173.13 101.562 173.13 102.491V116.34C173.13 117.231 173.164 117.904 173.232 118.347C173.296 118.794 173.423 119.208 173.603 119.581H170.027C170.188 119.198 170.31 118.745 170.388 118.229C170.462 117.708 170.501 117.078 170.501 116.34V102.998L159.695 119.581H156.895C157.027 118.785 157.095 118.076 157.095 117.462V102.491C157.095 101.616 157.061 100.947 156.988 100.475C156.915 100.003 156.793 99.5848 156.622 99.2209H160.193C160.012 99.5848 159.885 100.032 159.807 100.559C159.734 101.085 159.695 101.729 159.695 102.487V115.499L170.262 99.2258L173.798 99.2209ZM184.802 102.924C184.802 102.309 184.714 101.655 184.539 100.967C184.363 100.273 184.148 99.6932 183.904 99.2209H197.568C197.403 99.5357 197.285 99.9636 197.202 100.495C197.12 101.031 197.08 101.695 197.08 102.491V116.34C197.08 117.167 197.115 117.831 197.188 118.327C197.261 118.829 197.388 119.247 197.568 119.581H193.822C193.983 119.272 194.11 118.858 194.197 118.337C194.28 117.811 194.324 117.147 194.324 116.34V101.542H187.519V108.388C187.519 110.99 187.197 113.223 186.548 115.086C186.002 116.641 185.27 117.855 184.348 118.716C183.563 119.448 182.797 119.813 182.046 119.813C181.865 119.813 181.597 119.493 181.246 118.849C180.997 118.396 180.787 117.953 180.616 117.521C181.236 117.329 181.831 117 182.402 116.527C183.05 115.991 183.509 115.386 183.773 114.727C184.124 113.852 184.387 112.844 184.553 111.698C184.719 110.557 184.802 109.293 184.802 107.911V102.924ZM215.358 112.868C215.358 111.536 214.977 110.493 214.216 109.74C213.406 108.944 212.245 108.545 210.728 108.545C210.465 108.545 210.245 108.55 210.079 108.565C209.913 108.58 209.635 108.624 209.245 108.688V117.378L210.757 117.437C212.196 117.437 213.323 117.019 214.138 116.178C214.953 115.337 215.358 114.231 215.358 112.868ZM206.484 119.611H206.04C206.357 119.149 206.513 118.067 206.513 116.37V102.491C206.513 100.937 206.357 99.8552 206.04 99.2504H209.728C209.557 99.5602 209.435 99.9833 209.357 100.524C209.284 101.07 209.245 101.724 209.245 102.491V106.499L210.274 106.411H211.372C213.489 106.411 215.123 106.987 216.289 108.137C217.421 109.259 217.987 110.822 217.987 112.824C217.987 114.855 217.372 116.483 216.143 117.698C214.855 118.972 213.089 119.611 210.84 119.611H210.499H210.187H209.884H209.596H209.328H209.069H208.826H208.596H208.381H208.182H207.996H207.825C207.645 119.611 207.455 119.611 207.26 119.611C207.064 119.611 206.869 119.611 206.669 119.611H206.484Z" fill="white"/>
<path fill-rule="evenodd" clip-rule="evenodd" d="M129.511 77.7636C123.639 74.6158 117.108 71.7053 112.934 66.4974C109.995 62.8309 109.768 56.7259 111.613 52.3145C113.907 46.8312 118.402 40.8631 124.164 39.6528C132.016 38.0033 141.6 39.4501 147.504 44.7739C151.248 48.15 148.979 55.4294 146.844 60.1031C144.351 65.5594 140.427 73.2738 134.513 73.2048C127.203 73.1193 120.063 66.5484 117.338 59.757C115.515 55.2146 119.315 48.5365 123.723 46.3205C128.608 43.8656 135.992 44.6478 139.797 48.4672C142.994 51.6749 142.439 58.6149 139.577 62.2344C137.07 65.4061 131.674 63.6453 127.687 63.7846C127.056 63.8064 126.328 63.3089 126.146 62.703C125.328 59.9935 123.198 56.6484 124.824 54.2918C126.409 51.9954 130.656 51.356 132.972 52.8103C134.891 54.0156 133.981 57.448 133.412 59.6838C133.229 60.4036 131.502 60.3973 131.21 59.7242C130.537 58.1761 132.25 55.9395 131.21 54.6185C130.396 53.5846 127.837 53.4893 127.246 54.6913C126.257 56.7046 126.278 59.8595 127.907 61.3388C129.757 63.0189 133.715 64.0048 135.394 62.0893C138.038 59.0717 139.851 53.5217 137.596 50.2835C135.347 47.0561 129.491 46.7317 125.925 48.4999C122.573 50.1621 119.571 55.1001 120.861 58.5823C122.869 64.0014 128.1 69.5094 133.852 69.8871C138.62 70.2 142.466 64.4802 144.642 60.1435C146.41 56.6184 147.551 50.928 144.642 48.3783C139.552 43.9173 131.789 41.9267 125.045 42.9665C120.043 43.7375 116.005 48.651 113.595 53.1661C111.946 56.2548 111.886 60.9075 114.035 63.5914C117.939 68.4664 127.2 69.2655 128.85 75.3338L129.511 77.7636Z" fill="white"/>
<path fill-rule="evenodd" clip-rule="evenodd" d="M109.365 89.62C107.287 87.6007 109.124 76.5719 108.539 72.7967C112.247 69.2139 120.924 73.1779 121.172 78.212C121.42 83.2461 114.381 91.7702 109.365 89.62ZM110.658 86.0995C110.791 84.352 113.559 77.3055 110.416 75.9785C112.547 73.7885 117.926 75.4547 118.001 78.5507C118.075 81.6467 113.868 87.1883 110.658 86.0995Z" fill="white"/>
<path fill-rule="evenodd" clip-rule="evenodd" d="M148.513 89.8638C149.885 86.641 147.594 75.4664 147.878 71.1303C148.163 66.7943 137.152 76.1029 137.315 80.9082C137.477 85.7135 147.141 93.0868 148.513 89.8638ZM147.22 86.3909C147.051 84.3374 145.643 77.3062 146.001 74.381C146.359 71.456 140.195 78.262 140.486 81.1304C140.777 83.9988 147.389 88.4445 147.22 86.3909Z" fill="white"/>
<path fill-rule="evenodd" clip-rule="evenodd" d="M151.174 50.7057L150.437 55.2086C152.605 52.141 156.769 51.1588 159.172 52.3104C161.941 53.6367 162.413 57.1173 160.867 58.9691C157.102 63.1848 151.633 57.8685 156.49 52.9334C152.893 53.6935 151.376 56.6867 153.118 60.5081C154.921 64.2298 161.111 65.2558 164.261 60.4833C167.211 54.8812 162.22 44.9603 151.174 50.7057Z" fill="white"/>
<path fill-rule="evenodd" clip-rule="evenodd" d="M99.0585 44.553C104.683 43.708 110.512 43.3635 114.315 42.0654C116.3 41.3876 114.906 39.881 113.552 38.3173C107.109 30.8768 104.415 30.2801 102.668 30.4896C99.2547 31.498 96.327 34.2798 95.9553 40.1489C95.8385 41.9979 97.0011 44.8622 99.0585 44.553ZM100.734 41.7122C104.203 41.1502 107.716 40.9757 111.208 40.6071C108.928 38.9364 106.649 37.2648 104.369 35.5936C103.419 34.9324 103.276 34.0504 101.877 35.2758C100.948 37.02 101.078 37.5425 99.7864 39.035C99.1907 39.7231 99.5056 41.9112 100.734 41.7122Z" fill="white"/>
<path fill-rule="evenodd" clip-rule="evenodd" d="M112.619 35.3693C113.251 35.9381 113.884 36.5075 114.517 37.0769C116.578 28.2001 124.814 23.5453 128.008 27.895C131.672 33.3113 124.021 38.2621 119.864 31.4032C119.659 35.7447 122.604 38.2574 127.455 37.2236C132.211 36.0923 135.21 29.2166 130.732 24.3671C125.253 19.5376 113.964 23.2149 112.619 35.3693Z" fill="white"/>
<path fill-rule="evenodd" clip-rule="evenodd" d="M106.212 28.4326C106.633 28.8116 107.055 29.191 107.477 29.5704C108.85 23.6554 114.338 20.5536 116.466 23.4521C118.908 27.0613 113.81 30.3603 111.04 25.7898C110.903 28.6827 112.866 30.3571 116.098 29.6682C119.267 28.9143 121.266 24.3327 118.282 21.1013C114.631 17.8832 107.108 20.3335 106.212 28.4326Z" fill="white"/>
</svg>
