<svg width="20" height="22" viewBox="0 0 20 22" fill="none" xmlns="http://www.w3.org/2000/svg">
<path d="M17.5007 20.0588C17.5007 21.1309 16.6612 22 15.6257 22C14.5902 22 13.7507 21.1309 13.7507 20.0588C13.7507 18.9868 14.5902 18.1177 15.6257 18.1177C16.6612 18.1177 17.5007 18.9868 17.5007 20.0588Z" fill="#333333"/>
<path d="M5.62537 22C6.6609 22 7.50037 21.1309 7.50037 20.0588C7.50037 18.9868 6.6609 18.1177 5.62537 18.1177C4.58983 18.1177 3.75037 18.9868 3.75037 20.0588C3.75037 21.1309 4.58983 22 5.62537 22Z" fill="#333333"/>
<path d="M1.25 0C0.55965 0 0 0.579397 0 1.29411C0 2.00882 0.55965 2.58821 1.25 2.58821H2.77402L3.15597 4.16992C3.15999 4.18821 3.16437 4.20635 3.16912 4.22434L4.86566 11.2499L3.74994 12.405C2.17502 14.0355 3.29044 16.8234 5.5177 16.8234H16.25C16.9402 16.8234 17.5 16.244 17.5 15.5293C17.5 14.8145 16.9402 14.2352 16.25 14.2352H5.51771L6.7677 12.9411H15C15.4735 12.9411 15.9062 12.6641 16.118 12.2257L19.868 4.46106C20.0617 4.05991 20.0411 3.5835 19.8134 3.20197C19.5855 2.82044 19.1832 2.58821 18.75 2.58821H5.35097L4.96267 0.980234C4.82356 0.404149 4.32359 0 3.75 0H1.25Z" fill="#333333"/>
</svg>
