<svg width="19" height="20" viewBox="0 0 19 20" fill="none" xmlns="http://www.w3.org/2000/svg">
<path fill-rule="evenodd" clip-rule="evenodd" d="M10.9018 2.0865C14.2545 2.0865 16.9724 4.88336 16.9724 8.33347C16.9724 11.7836 14.2545 14.5804 10.9018 14.5804C7.54909 14.5804 4.83119 11.7836 4.83119 8.33347C4.83119 4.88336 7.54909 2.0865 10.9018 2.0865ZM19 8.33347C19 3.73102 15.3743 0 10.9018 0C6.42928 0 2.80359 3.73102 2.80359 8.33347C2.80359 12.9359 6.42928 16.6669 10.9018 16.6669C15.3743 16.6669 19 12.9359 19 8.33347Z" fill="#BDBDBD"/>
<path d="M6.18395 15.1075C5.63369 14.7009 5.13499 14.2251 4.6999 13.6925L0.694309 17.8144C0.307679 18.2123 0.307679 18.8455 0.694309 19.2434C1.09692 19.6577 1.76217 19.6577 2.16478 19.2434L6.18395 15.1075Z" fill="#BDBDBD"/>
</svg>
